<svg width="142" height="74" viewBox="0 0 142 74" fill="none" xmlns="http://www.w3.org/2000/svg">
<path d="M139.56 37.8046C139.041 37.6987 138.34 37.4959 137.463 37.1901L133.687 36.0698C132.321 35.6347 131.294 35.4171 130.61 35.4171C129.29 35.4171 128.249 35.8699 127.486 36.7784C126.724 37.687 126.334 38.9425 126.31 40.5449H129.387C129.449 40.2332 129.587 39.9892 129.801 39.8098C130.015 39.6305 130.285 39.5423 130.61 39.5423C131.006 39.5423 131.608 39.6511 132.417 39.8687L134.35 40.4538C134.996 40.6243 135.585 40.7654 136.122 40.8742C135.92 40.9448 135.579 41.0889 135.095 41.3064L133.476 42.0297C132.007 42.7148 130.082 43.0588 127.695 43.0588H125.759C124.996 43.0588 124.474 42.903 124.186 42.5913C123.899 42.2797 123.755 41.7004 123.755 40.8507V38.1986H120.2V40.8507C120.2 41.6446 120.048 42.212 119.745 42.5502C119.443 42.8883 118.909 43.0588 118.15 43.0588H112.245C111.529 43.0588 111.022 42.9001 110.717 42.5855C110.414 42.2708 110.262 41.7504 110.262 41.0271V39.0424H106.707V41.0271C106.707 42.4767 106.276 43.2 105.413 43.2C104.551 43.2 104.155 42.4767 104.155 41.0271L104.131 39.8716H100.576L100.6 41.0271C100.6 42.4767 100.168 43.2 99.3059 43.2C98.8307 43.2 98.4875 43.0265 98.2675 42.6795C98.0505 42.3326 97.9419 41.7828 97.9419 41.0271V39.8716H94.3867V41.0271C94.3867 41.7445 94.2195 42.262 93.8851 42.5796C93.5507 42.9001 93.0198 43.0588 92.2894 43.0588H76.7398C76.0945 43.0588 75.5284 42.8854 75.0385 42.5384C74.5486 42.1915 73.8505 41.4858 72.9412 40.4185L67.6905 34.0646H77.347V30.6186H69.8758V27.008H75.5401V23.7943H69.8758V20.3836H76.9716V16.9611H65.4934V37.4018L68.3358 40.7301C68.679 41.1124 68.9078 41.3976 69.0222 41.5887C69.1396 41.7798 69.1982 41.9798 69.1982 42.1915C69.1982 42.4561 69.075 42.6678 68.8257 42.8236C68.5764 42.9794 68.2244 43.0559 67.7638 43.0559H64.9214L64.8833 43.0882V43.0559C64.1294 43.0559 63.6161 42.9059 63.3404 42.606C63.0646 42.3061 62.9268 41.7563 62.9268 40.9536V24.7528L62.918 24.7645V24.7528H55.0625V27.8959H58.5473C58.4916 28.7927 58.163 29.5248 57.5617 30.0982C56.9604 30.6715 56.0481 30.9567 54.8279 30.9567C54.0652 30.9567 53.4022 30.8244 52.8361 30.5598C52.27 30.2952 51.8153 29.9218 51.478 29.4396C51.1407 28.9574 50.8884 28.4016 50.7271 27.7754C50.5628 27.1491 50.4836 26.4464 50.4836 25.6672V25.479C50.4836 23.8442 50.8591 22.5535 51.6129 21.6067C52.3668 20.6599 53.4022 20.1866 54.7252 20.1866C56.6993 20.1866 57.8286 21.0716 58.1161 22.8387H62.4868C62.4164 21.9889 62.2257 21.2215 61.9148 20.5306C61.6038 19.8425 61.2078 19.2604 60.7268 18.7899C60.2457 18.3195 59.6825 17.9226 59.0372 17.605C58.3918 17.2845 57.7113 17.0552 56.9926 16.9111C56.274 16.767 55.5113 16.6965 54.7017 16.6965C53.0238 16.6965 51.5132 17.0611 50.1756 17.7873C48.8351 18.5165 47.7849 19.5485 47.0223 20.8834C46.2596 22.2183 45.8812 23.7355 45.8812 25.432V25.6202C45.8812 26.7933 46.0484 27.8783 46.374 28.875V28.8691L44.9719 30.2687L43.4025 28.6957L41.8332 30.2687L40.2639 28.6957L38.6945 30.2687L37.1252 28.6957L35.5559 30.2687L33.9865 28.6957L32.4172 30.2687L30.8508 28.6986L29.2375 30.2834L27.7121 28.6927L26.1369 30.2716L24.5676 28.6986L22.9983 30.2716L21.429 28.6986L19.8596 30.2716L18.2903 28.6986L16.721 30.2716L15.1516 28.6986L13.5823 30.2716L12.013 28.6986L10.4436 30.2716L8.87431 28.6986L7.30498 30.2716L5.73564 28.6986L4.16631 30.2716L2.59698 28.6986L0.78125 30.5186L1.27405 31.0126L2.59698 29.6865L4.16631 31.2596L5.73564 29.6865L7.30498 31.2596L8.87431 29.6865L10.4436 31.2596L12.013 29.6865L13.5823 31.2596L15.1516 29.6865L16.721 31.2596L18.2903 29.6865L19.8596 31.2596L21.429 29.6865L22.9983 31.2596L24.5676 29.6865L26.1369 31.2596L27.7033 29.6895L29.2228 31.2772L30.8479 29.6836L32.4201 31.2596L33.9895 29.6865L35.5588 31.2596L37.1281 29.6865L38.6975 31.2596L40.2668 29.6865L41.8361 31.2596L43.4055 29.6865L44.9748 31.2596L46.6497 29.5807C47.0252 30.4598 47.518 31.2361 48.1487 31.9006C48.2015 31.9564 48.2572 32.0064 48.31 32.0593L48.1164 32.2534L46.5471 30.6803L44.9777 32.2534L43.4084 30.6803L41.8391 32.2534L40.2697 30.6803L38.7004 32.2534L37.1311 30.6803L35.5617 32.2534L33.9924 30.6803L32.4231 32.2534L30.8567 30.6833L29.2433 32.2681L27.718 30.6774L26.1428 32.2563L24.5735 30.6833L23.0042 32.2563L21.4348 30.6833L19.8655 32.2563L18.2962 30.6833L16.7268 32.2563L15.1575 30.6833L13.5882 32.2563L12.0188 30.6833L10.4495 32.2563L8.88017 30.6833L7.31084 32.2563L5.74151 30.6833L4.17218 32.2563L2.84925 30.9303L2.35645 31.4242L4.17218 33.2442L5.74151 31.6712L7.31084 33.2442L8.88017 31.6712L10.4495 33.2442L12.0188 31.6712L13.5882 33.2442L15.1575 31.6712L16.7268 33.2442L18.2962 31.6712L19.8655 33.2442L21.4348 31.6712L23.0042 33.2442L24.5735 31.6712L26.1428 33.2442L27.7092 31.6741L29.2287 33.2619L30.8537 31.6683L32.426 33.2442L33.9953 31.6712L35.5647 33.2442L37.134 31.6712L38.7033 33.2442L40.2727 31.6712L41.842 33.2442L43.4113 31.6712L44.9807 33.2442L46.55 31.6712L48.1193 33.2442L48.838 32.5239C49.0228 32.6709 49.2135 32.812 49.4159 32.9414L48.1223 34.2381L46.5529 32.665L44.9836 34.2381L43.4143 32.665L41.8449 34.2381L40.2756 32.665L38.7063 34.2381L37.1369 32.665L35.5676 34.2381L33.9983 32.665L32.4289 34.2381L30.8625 32.668L29.2492 34.2528L27.7239 32.6621L26.1487 34.241L24.5794 32.668L23.01 34.241L21.4407 32.668L19.8714 34.241L18.302 32.668L16.7327 34.241L15.1634 32.668L13.594 34.241L12.0247 32.668L10.4554 34.241L8.88604 32.668L7.31671 34.241L5.74738 32.668L3.93165 34.488L4.42445 34.9819L5.74738 33.6559L7.31671 35.2289L8.88604 33.6559L10.4554 35.2289L12.0247 33.6559L13.594 35.2289L15.1634 33.6559L16.7327 35.2289L18.302 33.6559L19.8714 35.2289L21.4407 33.6559L23.01 35.2289L24.5794 33.6559L26.1487 35.2289L27.7151 33.6618L29.2345 35.2495L30.8596 33.6559L32.4319 35.2319L34.0012 33.6588L35.5705 35.2319L37.1399 33.6588L38.7092 35.2319L40.2785 33.6588L41.8479 35.2319L43.4172 33.6588L44.9865 35.2319L46.5559 33.6588L48.1252 35.2319L49.6945 33.6588L51.2639 35.2319L52.3638 34.1293C52.7217 34.2028 53.0913 34.2586 53.4697 34.2969L54.4025 35.2319L55.2854 34.3468C55.7166 34.3263 56.1332 34.288 56.535 34.2234L57.5412 35.2319L59.1105 33.6588V34.6556L57.5412 36.2286L55.9718 34.6556L54.4025 36.2286L52.8332 34.6556L51.2639 36.2286L49.6945 34.6556L48.1252 36.2286L46.5559 34.6556L44.9865 36.2286L43.4172 34.6556L41.8479 36.2286L40.2785 34.6556L38.7092 36.2286L37.1399 34.6556L35.5705 36.2286L34.0012 34.6556L32.4319 36.2286L30.8655 34.6585L29.2521 36.2433L27.7268 34.6526L26.1516 36.2316L24.5823 34.6585L23.013 36.2316L21.4436 34.6585L19.8743 36.2316L18.305 34.6585L16.7356 36.2316L15.1663 34.6585L13.597 36.2316L12.0276 34.6585L10.4583 36.2316L8.88897 34.6585L7.31964 36.2316L5.99671 34.9055L5.50391 35.3995L7.31964 37.2195L8.88897 35.6464L10.4583 37.2195L12.0276 35.6464L13.597 37.2195L15.1663 35.6464L16.7356 37.2195L18.305 35.6464L19.8743 37.2195L21.4436 35.6464L23.013 37.2195L24.5823 35.6464L26.1516 37.2195L27.718 35.6494L29.2375 37.2371L30.8625 35.6435L32.4348 37.2195L34.0041 35.6464L35.5735 37.2195L37.1428 35.6464L38.7121 37.2195L40.2815 35.6464L41.8508 37.2195L43.4201 35.6464L44.9895 37.2195L46.5588 35.6464L48.1281 37.2195L49.6975 35.6464L51.2668 37.2195L52.8361 35.6464L54.4054 37.2195L55.9748 35.6464L57.5441 37.2195L59.1134 35.6464V36.6432L57.5441 38.2162L55.9748 36.6432L54.4054 38.2162L52.8361 36.6432L51.2668 38.2162L49.6975 36.6432L48.1281 38.2162L46.5588 36.6432L44.9895 38.2162L43.4201 36.6432L41.8508 38.2162L40.2815 36.6432L38.7121 38.2162L37.1428 36.6432L35.5735 38.2162L34.0041 36.6432L32.4348 38.2162L30.8684 36.6461L29.2551 38.2309L27.7297 36.6402L26.1546 38.2192L24.5852 36.6461L23.0159 38.2192L21.4466 36.6461L19.8772 38.2192L18.3079 36.6461L16.7386 38.2192L15.1692 36.6461L13.5999 38.2192L12.0306 36.6461L10.4612 38.2192L8.89191 36.6461L7.32258 38.2192L5.99964 36.8931L5.50684 37.3871L7.32258 39.2071L8.89191 37.6341L10.4612 39.2071L12.0306 37.6341L13.5999 39.2071L15.1692 37.6341L16.7386 39.2071L18.3079 37.6341L19.8772 39.2071L21.4466 37.6341L23.0159 39.2071L24.5852 37.6341L26.1546 39.2071L27.7209 37.637L29.2404 39.2247L30.8655 37.6311L32.4377 39.2071L34.0071 37.6341L35.5764 39.2071L37.1457 37.6341L38.7151 39.2071L40.2844 37.6341L41.8537 39.2071L43.4231 37.6341L44.9924 39.2071L46.5617 37.6341L48.1311 39.2071L49.7004 37.6341L51.2697 39.2071L52.8391 37.6341L54.4084 39.2071L55.9777 37.6341L57.547 39.2071L59.1164 37.6341V38.6308L57.547 40.2038L55.9777 38.6308L54.4084 40.2038L52.8391 38.6308L51.2697 40.2038L49.7004 38.6308L48.1311 40.2038L46.5617 38.6308L44.9924 40.2038L43.4231 38.6308L41.8537 40.2038L40.2844 38.6308L38.7151 40.2038L37.1457 38.6308L35.5764 40.2038L34.0071 38.6308L32.4377 40.2038L30.8713 38.6337L29.258 40.2185L27.7327 38.6249L26.1575 40.2038L24.5882 38.6308L23.0188 40.2038L21.4495 38.6308L19.8802 40.2038L18.3108 38.6308L16.7415 40.2038L15.1722 38.6308L13.6028 40.2038L12.0335 38.6308L10.4642 40.2038L9.14124 38.8778L8.64844 39.3717L10.4642 41.1918L12.0335 39.6187L13.6028 41.1918L15.1722 39.6187L16.7415 41.1918L18.3108 39.6187L19.8802 41.1918L21.4495 39.6187L23.0188 41.1918L24.5882 39.6187L26.1575 41.1918L27.7239 39.6217L29.2433 41.2094L30.8684 39.6158L32.4407 41.1918L34.01 39.6187L35.5793 41.1918L37.1487 39.6187L38.718 41.1918L40.2873 39.6187L41.8567 41.1918L43.426 39.6187L44.9953 41.1918L46.5647 39.6187L48.134 41.1918L49.7033 39.6187L51.2727 41.1918L52.842 39.6187L54.4113 41.1918L55.9806 39.6187L57.55 41.1918L59.1193 39.6187V40.6155L57.55 42.1885L55.9806 40.6155L54.4113 42.1885L52.842 40.6155L51.2727 42.1885L49.7033 40.6155L48.134 42.1885L46.5647 40.6155L44.9953 42.1885L43.426 40.6155L41.8567 42.1885L40.2873 40.6155L38.718 42.1885L37.1487 40.6155L35.5793 42.1885L34.01 40.6155L32.4407 42.1885L30.8743 40.6184L29.2609 42.2032L27.7356 40.6125L26.1604 42.1915L24.5911 40.6184L23.0218 42.1915L21.4524 40.6184L19.8831 42.1915L18.3138 40.6184L16.7444 42.1915L15.1751 40.6184L13.6058 42.1915L12.0364 40.6184L10.2207 42.4384L10.7135 42.9324L12.0364 41.6063L13.6058 43.1794L15.1751 41.6063L16.7444 43.1794L18.3138 41.6063L19.8831 43.1794L21.4524 41.6063L23.0218 43.1794L24.5911 41.6063L26.1604 43.1794L27.7268 41.6122L29.2463 43.2L30.8713 41.6063L32.4436 43.1823L34.0129 41.6093L35.5823 43.1823L37.1516 41.6093L38.7209 43.1823L40.2903 41.6093L41.8596 43.1823L43.4289 41.6093L44.9983 43.1823L46.5676 41.6093L48.1369 43.1823L49.7063 41.6093L51.2756 43.1823L52.8449 41.6093L54.4142 43.1823L55.9836 41.6093L57.5529 43.1823L59.1222 41.6093V41.8416C59.1222 42.1003 59.131 42.3443 59.1457 42.5825L57.5529 44.1791L55.9836 42.606L54.4142 44.1791L52.8449 42.606L51.2756 44.1791L49.7063 42.606L48.1369 44.1791L46.5676 42.606L44.9983 44.1791L43.4289 42.606L41.8596 44.1791L40.2903 42.606L38.7209 44.1791L37.1516 42.606L35.5823 44.1791L34.0129 42.606L32.4436 44.1791L30.8772 42.609L29.2639 44.1938L27.7385 42.6031L26.1634 44.182L24.594 42.609L23.0247 44.182L21.4554 42.609L19.886 44.182L18.3167 42.609L16.7474 44.182L15.178 42.609L13.6087 44.182L12.2858 42.856L11.793 43.3499L13.6087 45.1699L15.178 43.5969L16.7474 45.1699L18.3167 43.5969L19.886 45.1699L21.4554 43.5969L23.0247 45.1699L24.594 43.5969L26.1634 45.1699L27.7297 43.5998L29.2492 45.1876L30.8743 43.594L32.4465 45.1699L34.0159 43.5969L35.5852 45.1699L37.1545 43.5969L38.7239 45.1699L40.2932 43.5969L41.8625 45.1699L43.4319 43.5969L45.0012 45.1699L46.5705 43.5969L48.1399 45.1699L49.7092 43.5969L51.2785 45.1699L52.8479 43.5969L54.4172 45.1699L55.9865 43.5969L57.5558 45.1699L59.2454 43.4793C59.4038 44.5084 59.7206 45.3199 60.2046 45.8991C60.9233 46.7547 62.1113 47.184 63.7657 47.184H67.1361C68.1921 47.184 69.0838 46.8959 69.8113 46.3196C70.5388 45.7433 70.9582 44.9788 71.0756 44.0291C71.9292 45.2376 72.7065 46.0638 73.4076 46.5107C74.1057 46.9576 74.9622 47.1811 75.9713 47.1811H91.5209C92.5475 47.1811 93.363 46.9606 93.9731 46.5225C94.5833 46.0814 94.9617 45.4493 95.1083 44.623C95.2785 45.5257 95.6657 46.2284 96.267 46.7253C96.8683 47.2252 97.6281 47.4722 98.5462 47.4722C99.3529 47.4722 100.01 47.2575 100.514 46.8253C101.019 46.3931 101.339 45.7727 101.471 44.9612C101.65 45.7492 102.019 46.3637 102.577 46.8077C103.137 47.2516 103.803 47.4722 104.58 47.4722C105.428 47.4722 106.114 47.2017 106.642 46.6606C107.17 46.1196 107.493 45.3493 107.61 44.3525C107.789 45.2552 108.212 45.952 108.88 46.4431C109.549 46.9341 110.414 47.1781 111.479 47.1781H117.372C118.381 47.1781 119.185 46.9223 119.784 46.4137C120.382 45.905 120.746 45.1611 120.878 44.1879C121.057 45.1611 121.497 45.9021 122.195 46.4137C122.893 46.9223 123.82 47.1781 124.981 47.1781H127.709C129.194 47.1781 130.396 47.0252 131.323 46.7165C132.247 46.4078 133.368 45.7962 134.679 44.8759L136.474 43.6145C137.656 42.7883 138.542 42.2414 139.132 41.968C139.721 41.6946 140.411 41.5593 141.194 41.5593H141.986V37.9722H141.402C140.704 37.9722 140.094 37.9193 139.572 37.8134L139.56 37.8046ZM51.2609 34.2381L50.5892 33.5647C50.7036 33.6147 50.818 33.6618 50.9353 33.7088C51.1436 33.7882 51.3577 33.8588 51.5748 33.9264L51.2609 34.241V34.2381ZM57.3564 34.0528C57.5294 34.0087 57.6996 33.9646 57.8668 33.9117L57.5412 34.2381L57.3564 34.0528Z" fill="white"/>
<path d="M91.7559 30.6156H84.2847V27.005H89.949V23.7942H84.2847V20.3835H91.3834V16.9611H79.9023V34.0616H91.7559V30.6156Z" fill="white"/>
<path d="M102.301 30.6039C101.858 30.9626 101.251 31.142 100.483 31.142C99.9399 31.142 99.4735 31.0802 99.0893 30.9538C98.705 30.8303 98.4058 30.6451 98.1917 30.404C97.9775 30.1629 97.8191 29.9041 97.7135 29.6277C97.6079 29.3514 97.5375 29.025 97.4965 28.6516H93.2666C93.3517 30.4804 93.9941 31.8888 95.1967 32.8738C96.3965 33.8588 98.1594 34.3527 100.483 34.3527C101.509 34.3527 102.448 34.2057 103.302 33.9088C104.155 33.6118 104.865 33.2119 105.428 32.7062C105.991 32.2005 106.428 31.6065 106.739 30.9244C107.05 30.2423 107.206 29.516 107.206 28.7457C107.206 27.8489 107.074 27.0903 106.81 26.467C106.546 25.8436 106.129 25.335 105.563 24.938C104.997 24.5411 104.334 24.2324 103.583 24.0148C102.829 23.7972 101.896 23.6208 100.788 23.4885C99.6466 23.3326 98.881 23.118 98.4909 22.8446C98.1037 22.5711 97.9071 22.1565 97.9071 21.595C97.9071 21.0745 98.0978 20.6599 98.4791 20.3571C98.8605 20.0543 99.4149 19.9014 100.145 19.9014C100.876 19.9014 101.477 20.0719 101.882 20.41C102.287 20.7482 102.533 21.2656 102.627 21.9566H106.728C106.393 18.4606 104.199 16.7112 100.142 16.7112C98.2005 16.7112 96.6399 17.1993 95.4637 18.1784C94.2874 19.1545 93.6978 20.4071 93.6978 21.9331C93.6978 23.6149 94.173 24.8528 95.1263 25.6407C96.0767 26.4317 97.7106 26.9697 100.028 27.2579C101.187 27.4461 101.964 27.6636 102.366 27.9165C102.765 28.1694 102.967 28.5869 102.967 29.172C102.967 29.7571 102.747 30.2393 102.304 30.598L102.301 30.6039Z" fill="white"/>
<path d="M114.163 26.6433L119.537 34.0616H124.676L117.847 24.9497L124.315 16.9611H119.689L114.163 23.9912V16.9611H109.736V34.0616H114.163V26.6433Z" fill="white"/>
<path d="M130.434 30.5921H136.33L137.357 34.0616H142.006L136.541 16.9611H130.818L125.283 34.0616H129.407L130.434 30.5921ZM133.394 20.5452L135.421 27.5078H131.343L133.394 20.5452Z" fill="white"/>
<path d="M121.287 51.1928C121.607 50.4201 121.241 49.5344 120.47 49.2143C119.699 48.8943 118.815 49.2612 118.496 50.0338C118.177 50.8065 118.543 51.6922 119.314 52.0123C120.084 52.3323 120.968 51.9654 121.287 51.1928Z" fill="white"/>
<path d="M123.721 52.101C124.545 51.967 125.104 51.1892 124.97 50.3637C124.837 49.5382 124.061 48.9776 123.237 49.1116C122.414 49.2456 121.854 50.0234 121.988 50.8489C122.122 51.6744 122.898 52.235 123.721 52.101Z" fill="white"/>
<path d="M131.875 52.1266C132.709 52.1266 133.386 51.4486 133.386 50.6123C133.386 49.776 132.709 49.0981 131.875 49.0981C131.041 49.0981 130.364 49.776 130.364 50.6123C130.364 51.4486 131.041 52.1266 131.875 52.1266Z" fill="white"/>
<path d="M135.459 52.1266C136.293 52.1266 136.97 51.4486 136.97 50.6123C136.97 49.776 136.293 49.0981 135.459 49.0981C134.625 49.0981 133.948 49.776 133.948 50.6123C133.948 51.4486 134.625 52.1266 135.459 52.1266Z" fill="white"/>
<path d="M133.667 55.7196C134.501 55.7196 135.178 55.0416 135.178 54.2053C135.178 53.369 134.501 52.6911 133.667 52.6911C132.833 52.6911 132.156 53.369 132.156 54.2053C132.156 55.0416 132.833 55.7196 133.667 55.7196Z" fill="white"/>
<path d="M38.6976 66.0104L37.3746 64.6844L36.8818 65.1784L38.6976 66.9984L40.5133 65.1784L40.0205 64.6844L38.6976 66.0104Z" fill="white"/>
<path d="M38.6976 64.0258L37.1282 62.4498L35.3096 64.2728L35.8024 64.7667L37.1282 63.4407L38.6976 65.0137L40.5133 63.1937L40.0205 62.6968L38.6976 64.0258Z" fill="white"/>
<path d="M41.8392 62.0382L40.2669 60.4651L38.6976 62.0382L37.1282 60.4651L35.556 62.0382L33.9866 60.4651L32.1709 62.2852L32.6637 62.7791L33.9866 61.4531L35.556 63.0291L37.1282 61.4531L38.6976 63.0291L40.2669 61.4531L41.8392 63.0291L43.6549 61.2061L43.1621 60.7121L41.8392 62.0382Z" fill="white"/>
<path d="M41.8391 60.0535L40.2669 58.4775L38.6975 60.0535L37.1282 58.4775L35.5559 60.0535L33.9866 58.4775L32.4173 60.0535L30.8479 58.4805L29.2346 60.0653L27.7122 58.4746L26.137 60.0535L24.5647 58.4775L22.9954 60.0535L21.4261 58.4775L19.8568 60.0535L18.5309 58.7275L18.0381 59.2214L19.8568 61.0415L21.4261 59.4684L22.9954 61.0415L24.5647 59.4684L26.137 61.0415L27.7005 59.4743L29.2199 61.0591L30.845 59.4655L32.4173 61.0415L33.9866 59.4684L35.5559 61.0415L37.1282 59.4684L38.6975 61.0415L40.2669 59.4684L41.8391 61.0415L43.6549 59.2214L43.1621 58.7275L41.8391 60.0535Z" fill="white"/>
<path d="M44.9778 58.0659L43.4084 56.4928L41.8391 58.0659L40.2669 56.4928L38.6975 58.0659L37.1282 56.4928L35.5559 58.0659L33.9866 56.4928L32.4173 58.0659L30.8479 56.4958L29.2346 58.0806L27.7122 56.4869L26.137 58.0659L24.5647 56.4928L22.9954 58.0659L21.4261 56.4928L19.8568 58.0659L18.5309 56.7398L18.0381 57.2338L19.8568 59.0567L21.4261 57.4807L22.9954 59.0567L24.5647 57.4807L26.137 59.0567L27.7005 57.4866L29.2199 59.0744L30.845 57.4807L32.4173 59.0567L33.9866 57.4807L35.5559 59.0567L37.1282 57.4807L38.6975 59.0567L40.2669 57.4807L41.8391 59.0567L43.4084 57.4807L44.9778 59.0567L46.7935 57.2338L46.3007 56.7398L44.9778 58.0659Z" fill="white"/>
<path d="M44.9777 56.0812L43.4083 54.5081L41.839 56.0812L40.2667 54.5081L38.6974 56.0812L37.1281 54.5081L35.5558 56.0812L33.9865 54.5081L32.4171 56.0812L30.8478 54.5081L29.2345 56.0929L27.7121 54.5023L26.1369 56.0812L24.5646 54.5081L22.9953 56.0812L21.426 54.5081L19.8566 56.0812L19.4225 55.646L18.9268 56.14L19.8566 57.0691L21.426 55.4961L22.9953 57.0691L24.5646 55.4961L26.1369 57.0691L27.7003 55.5019L29.2198 57.0897L30.8449 55.4931L32.4171 57.0691L33.9865 55.4961L35.5558 57.0691L37.1281 55.4961L38.6974 57.0691L40.2667 55.4961L41.839 57.0691L43.4083 55.4961L44.9777 57.0691L46.7934 55.2491L46.3006 54.7551L44.9777 56.0812Z" fill="white"/>
<path d="M48.1194 54.0936L46.5471 52.5205L44.9778 54.0936L43.4085 52.5205L41.8391 54.0936L40.2669 52.5205L38.6975 54.0936L37.1282 52.5205L35.5559 54.0936L33.9866 52.5205L32.4173 54.0936L30.8479 52.5235L29.2346 54.1083L27.7122 52.5146L26.137 54.0936L24.5647 52.5205L22.9954 54.0936L21.4261 52.5205L19.6074 54.3435L20.1032 54.8375L21.4261 53.5114L22.9954 55.0844L24.5647 53.5114L26.137 55.0844L27.7005 53.5143L29.2199 55.1021L30.845 53.5085L32.4173 55.0844L33.9866 53.5114L35.5559 55.0844L37.1282 53.5114L38.6975 55.0844L40.2669 53.5114L41.8391 55.0844L43.4085 53.5114L44.9778 55.0844L46.5471 53.5114L48.1194 55.0844L49.9351 53.2644L49.4423 52.7675L48.1194 54.0936Z" fill="white"/>
<path d="M51.2581 52.109L49.6887 50.5359L48.1194 52.109L46.5471 50.5359L44.9778 52.109L43.4085 50.5359L41.8391 52.109L40.2669 50.5359L38.6975 52.109L37.1282 50.5359L35.5559 52.109L33.9866 50.5359L32.4173 52.109L30.8479 50.5388L29.2346 52.1236L27.7122 50.53L26.137 52.109L24.5648 50.5359L22.9954 52.109L21.6725 50.7829L21.1797 51.2769L22.9954 53.0998L24.5648 51.5238L26.137 53.0998L27.7005 51.5297L29.2199 53.1175L30.845 51.5209L32.4173 53.0998L33.9866 51.5238L35.5559 53.0998L37.1282 51.5238L38.6975 53.0998L40.2669 51.5238L41.8391 53.0998L43.4085 51.5238L44.9778 53.0998L46.5471 51.5238L48.1194 53.0998L49.6887 51.5238L51.2581 53.0998L53.0767 51.2769L52.581 50.7829L51.2581 52.109Z" fill="white"/>
<path d="M54.3996 50.1243L52.8303 48.5483L51.2581 50.1243L49.6887 48.5483L48.1194 50.1243L46.5471 48.5483L44.9778 50.1243L43.4085 48.5483L41.8391 50.1243L40.2669 48.5483L38.6975 50.1243L37.1282 48.5483L35.5559 50.1243L33.9866 48.5483L32.4173 50.1243L30.8479 48.5512L29.2346 50.136L27.7122 48.5453L26.137 50.1243L24.5648 48.5483L22.9954 50.1243L21.6725 48.7982L21.1797 49.2922L22.9954 51.1122L24.5648 49.5392L26.137 51.1122L27.7005 49.545L29.2199 51.1298L30.845 49.5362L32.4173 51.1122L33.9866 49.5392L35.5559 51.1122L37.1282 49.5392L38.6975 51.1122L40.2669 49.5392L41.8391 51.1122L43.4085 49.5392L44.9778 51.1122L46.5471 49.5392L48.1194 51.1122L49.6887 49.5392L51.2581 51.1122L52.8303 49.5392L54.3996 51.1122L56.2154 49.2922L55.7226 48.7982L54.3996 50.1243Z" fill="white"/>
<path d="M54.3996 48.1367L52.8303 46.5636L51.258 48.1367L49.6887 46.5636L48.1194 48.1367L46.5471 46.5636L44.9778 48.1367L43.4084 46.5636L41.8391 48.1367L40.2668 46.5636L38.6975 48.1367L37.1282 46.5636L35.5559 48.1367L33.9866 46.5636L32.4173 48.1367L30.8479 46.5666L29.2346 48.1514L27.7122 46.5577L26.137 48.1367L24.5647 46.5636L22.9954 48.1367L21.4261 46.5636L19.8567 48.1367L18.2845 46.5636L16.7151 48.1367L15.3922 46.8106L14.8994 47.3046L16.7151 49.1275L18.2845 47.5515L19.8567 49.1275L21.4261 47.5515L22.9954 49.1275L24.5647 47.5515L26.137 49.1275L27.7005 47.5574L29.2199 49.1452L30.845 47.5515L32.4173 49.1275L33.9866 47.5515L35.5559 49.1275L37.1282 47.5515L38.6975 49.1275L40.2668 47.5515L41.8391 49.1275L43.4084 47.5515L44.9778 49.1275L46.5471 47.5515L48.1194 49.1275L49.6887 47.5515L51.258 49.1275L52.8303 47.5515L54.3996 49.1275L56.2154 47.3046L55.7226 46.8106L54.3996 48.1367Z" fill="white"/>
<path d="M54.3996 46.152L52.8303 44.5789L51.258 46.152L49.6887 44.5789L48.1194 46.152L46.5471 44.5789L44.9778 46.152L43.4084 44.5789L41.8391 46.152L40.2668 44.5789L38.6975 46.152L37.1282 44.5789L35.5559 46.152L33.9866 44.5789L32.4173 46.152L30.8479 44.5789L29.2346 46.1637L27.7122 44.5731L26.137 46.152L24.5647 44.5789L22.9954 46.152L21.4261 44.5789L19.8567 46.152L18.2845 44.5789L16.7151 46.152L15.1458 44.5789L13.3271 46.399L13.8229 46.8929L15.1458 45.5669L16.7151 47.1399L18.2845 45.5669L19.8567 47.1399L21.4261 45.5669L22.9954 47.1399L24.5647 45.5669L26.137 47.1399L27.7005 45.5727L29.2199 47.1605L30.845 45.5639L32.4173 47.1399L33.9866 45.5669L35.5559 47.1399L37.1282 45.5669L38.6975 47.1399L40.2668 45.5669L41.8391 47.1399L43.4084 45.5669L44.9778 47.1399L46.5471 45.5669L48.1194 47.1399L49.6887 45.5669L51.258 47.1399L52.8303 45.5669L54.3996 47.1399L55.969 45.5669L57.2919 46.8929L57.7847 46.399L55.969 44.5789L54.3996 46.152Z" fill="white"/>
<path d="M5.72393 27.693L7.29326 29.269L8.86553 27.693L10.4349 29.269L12.0042 27.693L13.5735 29.269L15.1458 27.693L16.7151 29.269L18.2844 27.693L19.8567 29.269L21.426 27.693L22.9954 29.269L24.5647 27.693L26.137 29.269L27.7004 27.6989L29.2199 29.2866L30.845 27.6901L32.4172 29.269L33.9866 27.693L35.5559 29.269L37.1282 27.693L38.6975 29.269L40.2668 27.693L41.8391 29.269L43.4084 27.693L44.7313 29.0191L45.2241 28.5251L43.4084 26.7051L41.8391 28.2781L40.2668 26.7051L38.6975 28.2781L37.1282 26.7051L35.5559 28.2781L33.9866 26.7051L32.4172 28.2781L30.8479 26.708L29.2346 28.2928L27.7122 26.6992L26.137 28.2781L24.5647 26.7051L22.9954 28.2781L21.426 26.7051L19.8567 28.2781L18.2844 26.7051L16.7151 28.2781L15.1458 26.7051L13.5735 28.2781L12.0042 26.7051L10.4349 28.2781L8.86553 26.7051L7.29326 28.2781L5.72393 26.7051L4.1546 28.2781L2.83167 26.9521L2.33594 27.446L4.1546 29.269L5.72393 27.693Z" fill="white"/>
<path d="M5.72393 25.7083L7.29326 27.2814L8.86553 25.7083L10.4349 27.2814L12.0042 25.7083L13.5735 27.2814L15.1458 25.7083L16.7151 27.2814L18.2844 25.7083L19.8567 27.2814L21.426 25.7083L22.9954 27.2814L24.5647 25.7083L26.137 27.2814L27.7004 25.7142L29.2199 27.299L30.845 25.7054L32.4172 27.2814L33.9866 25.7083L35.5559 27.2814L37.1282 25.7083L38.6975 27.2814L40.2668 25.7083L41.8391 27.2814L43.4084 25.7083L44.7313 27.0344L45.2241 26.5404L43.4084 24.7175L41.8391 26.2935L40.2668 24.7175L38.6975 26.2935L37.1282 24.7175L35.5559 26.2935L33.9866 24.7175L32.4172 26.2935L30.8479 24.7204L29.2346 26.3052L27.7122 24.7145L26.137 26.2935L24.5647 24.7175L22.9954 26.2935L21.426 24.7175L19.8567 26.2935L18.2844 24.7175L16.7151 26.2935L15.1458 24.7175L13.5735 26.2935L12.0042 24.7175L10.4349 26.2935L8.86553 24.7175L7.29326 26.2935L5.72393 24.7175L4.1546 26.2935L2.83167 24.9674L2.33594 25.4614L4.1546 27.2814L5.72393 25.7083Z" fill="white"/>
<path d="M5.72393 23.7207L7.29327 25.2967L8.86553 23.7207L10.4349 25.2967L12.0042 23.7207L13.5735 25.2967L15.1458 23.7207L16.7151 25.2967L18.2845 23.7207L19.8567 25.2967L21.426 23.7207L22.9954 25.2967L24.5647 23.7207L26.137 25.2967L27.7004 23.7266L29.2199 25.3144L30.845 23.7207L32.4172 25.2967L33.9866 23.7207L35.5559 25.2967L37.1282 23.7207L38.6975 25.2967L40.2668 23.7207L41.5897 25.0497L42.0855 24.5528L40.2668 22.7328L38.6975 24.3058L37.1282 22.7328L35.5559 24.3058L33.9866 22.7328L32.4172 24.3058L30.8479 22.7358L29.2346 24.3205L27.7122 22.7269L26.137 24.3058L24.5647 22.7328L22.9954 24.3058L21.426 22.7328L19.8567 24.3058L18.2845 22.7328L16.7151 24.3058L15.1458 22.7328L13.5735 24.3058L12.0042 22.7328L10.4349 24.3058L8.86553 22.7328L7.29327 24.3058L5.72393 22.7328L3.9082 24.5528L4.401 25.0497L5.72393 23.7207Z" fill="white"/>
<path d="M8.86554 21.7361L10.4349 23.3091L12.0042 21.7361L13.5735 23.3091L15.1458 21.7361L16.7151 23.3091L18.2845 21.7361L19.8567 23.3091L21.4261 21.7361L22.9954 23.3091L24.5647 21.7361L26.137 23.3091L27.7004 21.7419L29.2199 23.3297L30.845 21.7331L32.4172 23.3091L33.9866 21.7361L35.5559 23.3091L37.1282 21.7361L38.4511 23.0621L38.9439 22.5682L37.1282 20.7481L35.5559 22.3212L33.9866 20.7481L32.4172 22.3212L30.8479 20.7481L29.2346 22.3329L27.7122 20.7422L26.137 22.3212L24.5647 20.7481L22.9954 22.3212L21.4261 20.7481L19.8567 22.3212L18.2845 20.7481L16.7151 22.3212L15.1458 20.7481L13.5735 22.3212L12.0042 20.7481L10.4349 22.3212L8.86554 20.7481L7.29327 22.3212L5.97034 20.9951L5.47754 21.4891L7.29327 23.3091L8.86554 21.7361Z" fill="white"/>
<path d="M8.86553 19.7514L10.4349 21.3244L12.0042 19.7514L13.5735 21.3244L15.1458 19.7514L16.7151 21.3244L18.2845 19.7514L19.8567 21.3244L21.4261 19.7514L22.9954 21.3244L24.5647 19.7514L26.137 21.3244L27.7004 19.7543L29.2199 21.3421L30.845 19.7484L32.4172 21.3244L33.9866 19.7514L35.5559 21.3244L37.3746 19.5044L36.8818 19.0075L35.5559 20.3365L33.9866 18.7605L32.4172 20.3365L30.8479 18.7635L29.2346 20.3483L27.7122 18.7546L26.137 20.3365L24.5647 18.7605L22.9954 20.3365L21.4261 18.7605L19.8567 20.3365L18.2845 18.7605L16.7151 20.3365L15.1458 18.7605L13.5735 20.3365L12.0042 18.7605L10.4349 20.3365L8.86553 18.7605L7.29327 20.3365L5.97034 19.0075L5.47754 19.5044L7.29327 21.3244L8.86553 19.7514Z" fill="white"/>
<path d="M8.86553 17.7638L10.4349 19.3397L12.0042 17.7638L13.5735 19.3397L15.1458 17.7638L16.7151 19.3397L18.2845 17.7638L19.8567 19.3397L21.4261 17.7638L22.9954 19.3397L24.5647 17.7638L26.137 19.3397L27.7004 17.7696L29.2199 19.3574L30.845 17.7608L32.4172 19.3397L33.9866 17.7638L35.3095 19.0898L35.8023 18.5959L33.9866 16.7758L32.4172 18.3489L30.8479 16.7788L29.2346 18.3636L27.7122 16.77L26.137 18.3489L24.5647 16.7758L22.9954 18.3489L21.4261 16.7758L19.8567 18.3489L18.2845 16.7758L16.7151 18.3489L15.1458 16.7758L13.5735 18.3489L12.0042 16.7758L10.4349 18.3489L8.86553 16.7758L7.29327 18.3489L5.97034 17.0228L5.47754 17.5168L7.29327 19.3397L8.86553 17.7638Z" fill="white"/>
<path d="M8.86553 15.7791L10.4349 17.3521L12.0042 15.7791L13.5735 17.3521L15.1458 15.7791L16.7151 17.3521L18.2845 15.7791L19.8567 17.3521L21.4261 15.7791L22.9954 17.3521L24.5647 15.7791L26.137 17.3521L27.7004 15.785L29.2199 17.3698L30.845 15.7761L32.4172 17.3521L34.233 15.5321L33.7402 15.0381L32.4172 16.3642L30.8479 14.7912L29.2346 16.376L27.7122 14.7853L26.137 16.3642L24.5647 14.7882L22.9954 16.3642L21.4261 14.7882L19.8567 16.3642L18.2845 14.7882L16.7151 16.3642L15.1458 14.7882L13.5735 16.3642L12.0042 14.7882L10.4349 16.3642L8.86553 14.7882L7.29327 16.3642L5.97034 15.0381L5.47754 15.5321L7.29327 17.3521L8.86553 15.7791Z" fill="white"/>
<path d="M8.86553 13.7915L10.4349 15.3675L12.0042 13.7915L13.5735 15.3675L15.1458 13.7915L16.7151 15.3675L18.2845 13.7915L19.8567 15.3675L21.4261 13.7915L22.9954 15.3675L24.5647 13.7915L26.137 15.3675L27.7004 13.7974L29.2199 15.3851L30.845 13.7915L32.1708 15.1205L32.6636 14.6236L30.8479 12.8065L29.2346 14.3913L27.7122 12.7977L26.137 14.3766L24.5647 12.8035L22.9954 14.3766L21.4261 12.8035L19.8567 14.3766L18.2845 12.8035L16.7151 14.3766L15.1458 12.8035L13.5735 14.3766L12.0042 12.8035L10.4349 14.3766L8.86553 12.8035L7.29327 14.3766L5.97034 13.0505L5.47754 13.5445L7.29327 15.3675L8.86553 13.7915Z" fill="white"/>
<path d="M8.86554 11.8068L10.4349 13.3798L12.0042 11.8068L13.5735 13.3798L15.1458 11.8068L16.7151 13.3798L18.2845 11.8068L19.8567 13.3798L21.4261 11.8068L22.9954 13.3798L24.5647 11.8068L26.137 13.3798L27.7004 11.8127L29.2199 13.4004L30.845 11.8039L32.1708 13.1329L32.6636 12.6389L30.8479 10.8189L29.2346 12.4037L27.7122 10.813L26.137 12.3919L24.5647 10.8189L22.9954 12.3919L21.4261 10.8189L19.8567 12.3919L18.2845 10.8189L16.7151 12.3919L15.1458 10.8189L13.5735 12.3919L12.0042 10.8189L10.4349 12.3919L8.86554 10.8189L7.04688 12.6389L7.53967 13.1329L8.86554 11.8068Z" fill="white"/>
<path d="M8.86554 9.82213L10.4349 11.3952L12.0042 9.82213L13.5735 11.3952L15.1458 9.82213L16.7151 11.3952L18.2845 9.82213L19.8567 11.3952L21.4261 9.82213L22.9954 11.3952L24.5647 9.82213L26.137 11.3952L27.7004 9.82507L29.2199 11.4128L30.845 9.81919L32.1708 11.1482L32.6636 10.6542L30.8479 8.8342L29.2346 10.419L27.7122 8.82538L26.137 10.4043L24.5647 8.83126L22.9954 10.4043L21.4261 8.83126L19.8567 10.4043L18.2845 8.83126L16.7151 10.4043L15.1458 8.83126L13.5735 10.4043L12.0042 8.83126L10.4349 10.4043L8.86554 8.83126L7.04688 10.6542L7.53967 11.1482L8.86554 9.82213Z" fill="white"/>
<path d="M27.7005 7.84039L29.22 9.42813L30.845 7.83157L32.1709 9.16056L32.6637 8.6666L30.848 6.84952L29.2346 8.43138L27.7122 6.8407L25.8906 8.6666L26.3834 9.16056L27.7005 7.84039Z" fill="white"/>
</svg>
